<svg width="13475" height="2719" viewBox="0 0 13475 2719" fill="none" xmlns="http://www.w3.org/2000/svg">
<path d="M1858.61 956.2V1285H1412.21V2641H1001.81V1285H555.413V956.2H1858.61ZM2474.98 2324.2H3012.58V2641H2064.58V956.2H2474.98V2324.2ZM4492.33 1498.6C4492.33 1596.2 4469.93 1685.8 4425.13 1767.4C4380.33 1847.4 4311.53 1912.2 4218.73 1961.8C4125.93 2011.4 4010.73 2036.2 3873.13 2036.2H3618.73V2641H3208.33V956.2H3873.13C4007.53 956.2 4121.13 979.4 4213.93 1025.8C4306.73 1072.2 4376.33 1136.2 4422.73 1217.8C4469.13 1299.4 4492.33 1393 4492.33 1498.6ZM3841.93 1709.8C3920.33 1709.8 3978.73 1691.4 4017.13 1654.6C4055.53 1617.8 4074.73 1565.8 4074.73 1498.6C4074.73 1431.4 4055.53 1379.4 4017.13 1342.6C3978.73 1305.8 3920.33 1287.4 3841.93 1287.4H3618.73V1709.8H3841.93Z" fill="white"/>
<path d="M6576.47 1497.6C6576.47 1595.2 6554.07 1684.8 6509.27 1766.4C6464.47 1846.4 6395.67 1911.2 6302.87 1960.8C6210.07 2010.4 6094.87 2035.2 5957.27 2035.2H5702.87V2640H5292.47V955.2H5957.27C6091.67 955.2 6205.27 978.4 6298.07 1024.8C6390.87 1071.2 6460.47 1135.2 6506.87 1216.8C6553.27 1298.4 6576.47 1392 6576.47 1497.6ZM5926.07 1708.8C6004.47 1708.8 6062.87 1690.4 6101.27 1653.6C6139.67 1616.8 6158.87 1564.8 6158.87 1497.6C6158.87 1430.4 6139.67 1378.4 6101.27 1341.6C6062.87 1304.8 6004.47 1286.4 5926.07 1286.4H5702.87V1708.8H5926.07Z" fill="white"/>
<path d="M9337.56 1524C9385.56 1450.4 9445.56 1392.8 9517.56 1351.2C9589.56 1308 9669.56 1286.4 9757.56 1286.4V1720.8H9644.76C9542.36 1720.8 9465.56 1743.2 9414.36 1788C9363.16 1831.2 9337.56 1908 9337.56 2018.4V2640H8927.16V1300.8H9337.56V1524ZM10700.1 2292V2640H10491.3C10342.5 2640 10226.5 2604 10143.3 2532C10060.1 2458.4 10018.5 2339.2 10018.5 2174.4V1641.6H9855.32V1300.8H10018.5V974.4H10428.9V1300.8H10697.7V1641.6H10428.9V2179.2C10428.9 2219.2 10438.5 2248 10457.7 2265.6C10476.9 2283.2 10508.9 2292 10553.7 2292H10700.1ZM10847.1 1968C10847.1 1830.4 10872.7 1709.6 10923.9 1605.6C10976.7 1501.6 11047.9 1421.6 11137.5 1365.6C11227.1 1309.6 11327.1 1281.6 11437.5 1281.6C11531.9 1281.6 11614.3 1300.8 11684.7 1339.2C11756.7 1377.6 11811.9 1428 11850.3 1490.4V1300.8H12260.7V2640H11850.3V2450.4C11810.3 2512.8 11754.3 2563.2 11682.3 2601.6C11611.9 2640 11529.5 2659.2 11435.1 2659.2C11326.3 2659.2 11227.1 2631.2 11137.5 2575.2C11047.9 2517.6 10976.7 2436.8 10923.9 2332.8C10872.7 2227.2 10847.1 2105.6 10847.1 1968ZM11850.3 1970.4C11850.3 1868 11821.5 1787.2 11763.9 1728C11707.9 1668.8 11639.1 1639.2 11557.5 1639.2C11475.9 1639.2 11406.3 1668.8 11348.7 1728C11292.7 1785.6 11264.7 1865.6 11264.7 1968C11264.7 2070.4 11292.7 2152 11348.7 2212.8C11406.3 2272 11475.9 2301.6 11557.5 2301.6C11639.1 2301.6 11707.9 2272 11763.9 2212.8C11821.5 2153.6 11850.3 2072.8 11850.3 1970.4ZM12968 864V2640H12557.6V864H12968Z" fill="white"/>
<path d="M7623.06 927.134C7627.61 927.088 7627.61 927.088 7632.26 927.042C7642.28 926.965 7652.29 927.016 7662.31 927.075C7669.28 927.063 7676.25 927.046 7683.23 927.024C7697.83 926.998 7712.43 927.036 7727.04 927.117C7745.76 927.217 7764.46 927.159 7783.18 927.055C7797.57 926.992 7811.97 927.012 7826.36 927.057C7833.26 927.069 7840.16 927.055 7847.06 927.014C7856.71 926.97 7866.35 927.037 7876 927.134C7878.84 927.099 7881.69 927.064 7884.62 927.027C7899.12 927.297 7905.02 928.274 7917.03 937.19C7924.38 947.413 7926.11 951.521 7925.95 963.868C7925.95 967.15 7925.95 970.431 7925.95 973.812C7925.85 977.309 7925.76 980.806 7925.67 984.408C7925.65 988.023 7925.62 991.638 7925.6 995.363C7925.5 1006.88 7925.28 1018.4 7925.06 1029.91C7924.97 1037.73 7924.89 1045.55 7924.82 1053.37C7924.63 1072.52 7924.33 1091.67 7923.97 1110.81C7928.2 1111.28 7932.44 1111.74 7936.8 1112.22C7948.31 1113.67 7958.81 1115.89 7969.83 1119.64C7973.02 1120.73 7976.21 1121.81 7979.5 1122.93C7982.83 1124.11 7986.17 1125.29 7989.6 1126.51C7993.09 1127.74 7996.59 1128.96 8000.19 1130.23C8039.99 1144.55 8078.1 1162.2 8115.03 1182.8C8117.81 1184.36 8120.59 1185.91 8123.46 1187.5C8125.55 1188.67 8127.65 1189.85 8129.81 1191.05C8131.19 1189.66 8132.57 1188.27 8134 1186.84C8148.36 1172.4 8162.74 1157.97 8177.12 1143.55C8182.49 1138.16 8187.86 1132.77 8193.22 1127.37C8200.92 1119.63 8208.63 1111.9 8216.35 1104.17C8219.95 1100.54 8219.95 1100.54 8223.64 1096.83C8225.87 1094.59 8228.11 1092.36 8230.41 1090.05C8232.38 1088.08 8234.35 1086.1 8236.37 1084.07C8246.88 1074.43 8257.26 1074.02 8271.04 1074.41C8281.18 1076.15 8284.69 1078.64 8292.15 1085.58C8294.57 1087.81 8296.98 1090.04 8299.46 1092.34C8316.73 1109.04 8333.82 1125.92 8350.79 1142.93C8354.88 1147.03 8358.98 1151.12 8363.08 1155.21C8371.61 1163.74 8380.13 1172.27 8388.65 1180.8C8399.58 1191.75 8410.53 1202.69 8421.48 1213.62C8429.91 1222.04 8438.34 1230.47 8446.77 1238.91C8450.81 1242.95 8454.84 1246.98 8458.88 1251.01C8464.5 1256.63 8470.11 1262.25 8475.72 1267.87C8478.91 1271.07 8482.1 1274.26 8485.39 1277.56C8494.66 1287.39 8496.96 1293.41 8497.88 1306.62C8497.48 1319.71 8495.64 1326.1 8486.74 1335.7C8483.42 1339.3 8483.42 1339.3 8480.03 1342.96C8461.83 1361.73 8443.38 1380.22 8424.83 1398.64C8420.57 1402.88 8416.31 1407.12 8412.05 1411.36C8401.71 1421.67 8391.36 1431.96 8381 1442.25C8382.83 1445.61 8384.66 1448.97 8386.54 1452.44C8400.36 1478.01 8413.73 1503.54 8425.05 1530.34C8426.34 1533.39 8427.64 1536.43 8428.97 1539.56C8461.24 1617.05 8461.24 1617.05 8461.24 1648.09C8463.26 1648.05 8465.27 1648.01 8467.35 1647.97C8488.35 1647.58 8509.34 1647.32 8530.34 1647.13C8538.18 1647.04 8546.01 1646.92 8553.84 1646.77C8565.11 1646.56 8576.38 1646.46 8587.64 1646.38C8591.14 1646.29 8594.64 1646.2 8598.24 1646.11C8601.52 1646.11 8604.81 1646.11 8608.19 1646.11C8611.06 1646.07 8613.94 1646.03 8616.89 1645.99C8629.84 1649.25 8634.77 1654.89 8642.66 1665.53C8645.14 1675.73 8645.05 1685.6 8644.92 1696.06C8644.95 1699.09 8644.98 1702.13 8645.01 1705.26C8645.09 1715.28 8645.04 1725.29 8644.98 1735.31C8644.99 1742.28 8645.01 1749.25 8645.03 1756.23C8645.06 1770.83 8645.02 1785.43 8644.94 1800.04C8644.84 1818.75 8644.9 1837.46 8645 1856.18C8645.06 1870.57 8645.04 1884.97 8645 1899.37C8644.99 1906.26 8645 1913.16 8645.04 1920.06C8645.08 1929.71 8645.02 1939.35 8644.92 1949C8644.95 1951.84 8644.99 1954.69 8645.03 1957.62C8644.76 1972.12 8643.78 1978.02 8634.87 1990.03C8624.64 1997.38 8620.53 1999.11 8608.19 1998.95C8604.9 1998.95 8601.62 1998.95 8598.24 1998.94C8593 1998.81 8593 1998.81 8587.64 1998.67C8584.03 1998.65 8580.42 1998.62 8576.69 1998.6C8565.17 1998.5 8553.66 1998.28 8542.14 1998.06C8534.32 1997.97 8526.5 1997.89 8518.68 1997.82C8499.53 1997.63 8480.39 1997.33 8461.24 1996.97C8460.78 2001.2 8460.31 2005.44 8459.84 2009.8C8458.39 2021.31 8456.16 2031.81 8452.41 2042.83C8451.33 2046.02 8450.24 2049.21 8449.12 2052.5C8447.94 2055.84 8446.76 2059.17 8445.54 2062.6C8444.32 2066.1 8443.09 2069.59 8441.83 2073.19C8427.51 2113 8409.86 2151.1 8389.25 2188.03C8387.7 2190.81 8386.15 2193.59 8384.55 2196.46C8382.8 2199.6 8382.79 2199.6 8381 2202.81C8382.39 2204.19 8383.78 2205.58 8385.22 2207C8399.66 2221.36 8414.09 2235.74 8428.51 2250.12C8433.9 2255.49 8439.29 2260.86 8444.68 2266.22C8452.42 2273.92 8460.15 2281.63 8467.88 2289.35C8471.52 2292.96 8471.52 2292.96 8475.23 2296.64C8478.58 2299.99 8478.58 2299.99 8482 2303.41C8483.97 2305.38 8485.95 2307.34 8487.99 2309.37C8497.63 2319.88 8498.03 2330.26 8497.64 2344.04C8495.9 2354.18 8493.41 2357.69 8486.48 2365.15C8483.13 2368.77 8483.13 2368.77 8479.72 2372.46C8463.01 2389.73 8446.13 2406.81 8429.12 2423.79C8425.03 2427.89 8420.93 2431.98 8416.84 2436.08C8408.32 2444.61 8399.79 2453.13 8391.25 2461.65C8380.3 2472.58 8369.37 2483.53 8358.44 2494.48C8350.01 2502.92 8341.58 2511.35 8333.15 2519.77C8329.11 2523.81 8325.07 2527.84 8321.04 2531.88C8315.43 2537.5 8309.81 2543.11 8304.18 2548.72C8299.39 2553.51 8299.39 2553.51 8294.5 2558.39C8284.67 2567.65 8278.65 2569.96 8265.43 2570.88C8252.34 2570.48 8245.96 2568.64 8236.35 2559.75C8233.96 2557.53 8231.56 2555.31 8229.09 2553.03C8210.33 2534.83 8191.83 2516.38 8173.42 2497.83C8169.18 2493.57 8164.93 2489.31 8160.69 2485.05C8150.38 2474.71 8140.09 2464.36 8129.81 2454C8126.44 2455.83 8123.08 2457.66 8119.62 2459.54C8094.04 2473.36 8068.52 2486.73 8041.71 2498.05C8038.67 2499.34 8035.63 2500.64 8032.49 2501.97C7955 2534.25 7955 2534.25 7923.97 2534.25C7924.01 2536.26 7924.04 2538.28 7924.09 2540.35C7924.47 2561.35 7924.74 2582.35 7924.93 2603.35C7925.01 2611.18 7925.13 2619.01 7925.28 2626.85C7925.5 2638.11 7925.59 2649.38 7925.67 2660.65C7925.76 2664.14 7925.85 2667.64 7925.95 2671.24C7925.95 2676.16 7925.95 2676.16 7925.95 2681.19C7925.99 2684.06 7926.03 2686.94 7926.06 2689.9C7922.8 2702.84 7917.16 2707.77 7906.52 2715.66C7896.32 2718.14 7886.46 2718.05 7876 2717.92C7872.96 2717.95 7869.92 2717.98 7866.79 2718.01C7856.78 2718.09 7846.76 2718.04 7836.75 2717.98C7829.77 2717.99 7822.8 2718.01 7815.83 2718.03C7801.22 2718.06 7786.62 2718.02 7772.01 2717.94C7753.3 2717.84 7734.59 2717.9 7715.88 2718C7701.48 2718.06 7687.09 2718.04 7672.69 2718C7665.79 2717.99 7658.89 2718 7651.99 2718.04C7642.34 2718.09 7632.7 2718.02 7623.06 2717.92C7620.21 2717.96 7617.37 2717.99 7614.43 2718.03C7599.93 2717.76 7594.04 2716.78 7582.03 2707.87C7574.67 2697.64 7572.94 2693.53 7573.1 2681.19C7573.11 2677.9 7573.11 2674.63 7573.11 2671.24C7573.2 2667.75 7573.29 2664.25 7573.38 2660.65C7573.42 2655.22 7573.42 2655.22 7573.46 2649.69C7573.55 2638.17 7573.77 2626.66 7574 2615.14C7574.09 2607.32 7574.16 2599.5 7574.24 2591.68C7574.43 2572.54 7574.72 2553.39 7575.09 2534.25C7571.44 2533.78 7567.78 2533.31 7564.02 2532.84C7545.75 2529.99 7528.92 2524.4 7511.42 2518.55C7505.9 2516.7 7505.9 2516.7 7500.28 2514.83C7459.74 2500.91 7421.44 2483.11 7384.03 2462.25C7381.25 2460.7 7378.47 2459.15 7375.6 2457.55C7372.46 2455.8 7372.46 2455.8 7369.25 2454C7367.86 2455.4 7366.48 2456.78 7365.06 2458.22C7350.69 2472.66 7336.32 2487.09 7321.93 2501.51C7316.56 2506.9 7311.19 2512.29 7305.83 2517.68C7298.13 2525.42 7290.42 2533.15 7282.71 2540.88C7280.3 2543.31 7277.9 2545.73 7275.42 2548.23C7272.07 2551.58 7272.07 2551.58 7268.65 2555C7266.68 2556.98 7264.71 2558.95 7262.68 2560.99C7252.17 2570.63 7241.79 2571.04 7228.01 2570.64C7217.87 2568.9 7214.37 2566.41 7206.9 2559.48C7204.49 2557.24 7202.08 2555.01 7199.59 2552.72C7182.32 2536.01 7165.24 2519.13 7148.27 2502.12C7144.17 2498.03 7140.07 2493.94 7135.97 2489.84C7127.44 2481.32 7118.92 2472.79 7110.4 2464.25C7099.47 2453.3 7088.53 2442.37 7077.58 2431.44C7069.14 2423.02 7060.71 2414.58 7052.28 2406.15C7048.25 2402.11 7044.21 2398.07 7040.17 2394.04C7034.55 2388.43 7028.94 2382.81 7023.34 2377.18C7020.14 2373.99 7016.95 2370.79 7013.66 2367.5C7004.4 2357.67 7002.1 2351.65 7001.18 2338.44C7001.58 2325.35 7003.41 2318.96 7012.31 2309.35C7014.53 2306.96 7016.74 2304.56 7019.03 2302.09C7037.23 2283.33 7055.68 2264.83 7074.22 2246.42C7078.48 2242.18 7082.74 2237.93 7087 2233.69C7097.34 2223.39 7107.69 2213.09 7118.05 2202.81C7116.22 2199.45 7114.4 2196.08 7112.51 2192.62C7098.69 2167.04 7085.33 2141.52 7074.01 2114.72C7072.71 2111.67 7071.42 2108.63 7070.08 2105.49C7037.81 2028 7037.81 2028 7037.81 1996.97C7035.79 1997.01 7033.78 1997.05 7031.7 1997.09C7010.71 1997.47 6989.71 1997.74 6968.71 1997.93C6960.88 1998.02 6953.04 1998.13 6945.21 1998.28C6933.94 1998.5 6922.68 1998.59 6911.41 1998.67C6907.91 1998.76 6904.41 1998.85 6900.81 1998.94C6897.53 1998.95 6894.25 1998.95 6890.87 1998.95C6887.99 1998.99 6885.12 1999.03 6882.16 1999.07C6869.22 1995.8 6864.29 1990.16 6856.39 1979.52C6853.92 1969.32 6854 1959.45 6854.13 1949C6854.1 1945.96 6854.07 1942.92 6854.04 1939.79C6853.96 1929.78 6854.02 1919.76 6854.07 1909.75C6854.06 1902.77 6854.05 1895.8 6854.02 1888.83C6854 1874.22 6854.04 1859.62 6854.12 1845.01C6854.22 1826.3 6854.16 1807.59 6854.05 1788.88C6853.99 1774.48 6854.01 1760.09 6854.06 1745.69C6854.07 1738.79 6854.05 1731.89 6854.01 1724.99C6853.97 1715.34 6854.04 1705.71 6854.13 1696.06C6854.08 1691.79 6854.08 1691.79 6854.03 1687.43C6854.3 1672.93 6855.27 1667.03 6864.19 1655.03C6874.41 1647.67 6878.52 1645.94 6890.87 1646.11C6894.15 1646.11 6897.43 1646.11 6900.81 1646.11C6906.06 1646.25 6906.06 1646.25 6911.41 1646.38C6915.02 1646.41 6918.64 1646.43 6922.36 1646.46C6933.88 1646.56 6945.4 1646.78 6956.91 1647C6964.73 1647.08 6972.55 1647.16 6980.37 1647.24C6999.52 1647.43 7018.67 1647.72 7037.81 1648.09C7038.27 1643.85 7038.74 1639.62 7039.22 1635.25C7040.67 1623.75 7042.89 1613.24 7046.64 1602.23C7047.73 1599.03 7048.81 1595.84 7049.93 1592.55C7051.11 1589.22 7052.29 1585.89 7053.51 1582.45C7054.74 1578.96 7055.96 1575.46 7057.23 1571.86C7071.55 1532.06 7089.2 1493.95 7109.8 1457.03C7111.36 1454.25 7112.91 1451.46 7114.5 1448.6C7115.67 1446.5 7116.85 1444.41 7118.05 1442.25C7116.66 1440.86 7115.27 1439.48 7113.84 1438.06C7099.4 1423.69 7084.97 1409.32 7070.55 1394.93C7065.16 1389.56 7059.77 1384.19 7054.37 1378.83C7046.63 1371.13 7038.9 1363.42 7031.17 1355.71C7028.75 1353.3 7026.32 1350.9 7023.83 1348.42C7021.59 1346.18 7019.36 1343.95 7017.05 1341.64C7014.09 1338.69 7014.09 1338.69 7011.07 1335.68C7001.43 1325.17 7001.02 1314.79 7001.41 1301.01C7003.15 1290.87 7005.64 1287.37 7012.58 1279.9C7014.81 1277.49 7017.04 1275.08 7019.34 1272.59C7036.04 1255.32 7052.92 1238.24 7069.93 1221.27C7074.03 1217.17 7078.12 1213.07 7082.21 1208.97C7090.74 1200.44 7099.27 1191.92 7107.8 1183.4C7118.75 1172.47 7129.69 1161.53 7140.62 1150.58C7149.04 1142.14 7157.47 1133.71 7165.91 1125.28C7169.95 1121.25 7173.98 1117.21 7178.01 1113.17C7183.63 1107.55 7189.25 1101.94 7194.87 1096.34C7198.07 1093.14 7201.26 1089.95 7204.56 1086.66C7214.39 1077.4 7220.41 1075.1 7233.62 1074.18C7246.71 1074.58 7253.1 1076.41 7262.7 1085.31C7265.1 1087.53 7267.5 1089.74 7269.97 1092.02C7288.72 1110.23 7307.22 1128.68 7325.64 1147.22C7329.88 1151.48 7334.12 1155.74 7338.36 1160C7348.67 1170.34 7358.96 1180.69 7369.25 1191.05C7372.61 1189.22 7375.97 1187.4 7379.44 1185.51C7405.01 1171.69 7430.54 1158.32 7457.34 1147.01C7460.38 1145.71 7463.43 1144.42 7466.56 1143.08C7544.05 1110.81 7544.05 1110.81 7575.09 1110.81C7575.05 1108.79 7575.01 1106.78 7574.97 1104.7C7574.58 1083.71 7574.32 1062.71 7574.13 1041.71C7574.04 1033.88 7573.92 1026.04 7573.77 1018.21C7573.56 1006.94 7573.46 995.677 7573.38 984.408C7573.29 980.912 7573.2 977.415 7573.11 973.812C7573.11 970.531 7573.11 967.249 7573.1 963.868C7573.07 960.994 7573.03 958.12 7572.99 955.158C7579.68 928.599 7599.87 926.847 7623.06 927.134ZM7419.16 1512.56C7366.44 1568.08 7330.32 1637.49 7309.94 1710.89C7308.75 1714.99 7307.56 1719.1 7306.34 1723.33C7289.87 1792.8 7293.22 1876.44 7313.43 1944.64C7314.61 1949.02 7315.79 1953.41 7317.01 1957.93C7352.14 2076.07 7438.56 2168.43 7545 2226.57C7649.3 2281.19 7773.44 2289.75 7885.59 2255.14C8005.9 2215.48 8099.12 2131.16 8157.46 2019.63C8205.91 1922.53 8215.67 1804.6 8185.63 1700.42C8184.9 1697.88 8184.17 1695.33 8183.42 1692.71C8147.45 1571.96 8063.46 1478.24 7954.06 1418.48C7774.64 1324.54 7558.56 1371.41 7419.16 1512.56Z" fill="white"/>
<circle cx="7749" cy="1822" r="537" fill="#141414"/>
<path d="M7844 1511.29C7869.87 1533.38 7886.87 1571.42 7903.42 1599.64C7909.21 1609.5 7915.03 1619.34 7920.82 1629.18C7922.01 1631.16 7923.17 1633.14 7924.36 1635.17C7942.19 1665.31 7960.49 1695.18 7978.79 1725.06C7980.87 1722.56 7982.92 1720.06 7985.07 1717.48C7993.08 1708.49 7997.08 1705.7 8009.23 1703.08C8023.35 1703.31 8030.96 1705.05 8042.81 1712.3C8054.35 1728.24 8051.31 1744.86 8047.97 1763.34C8045.52 1774.06 8042.84 1784.69 8040.06 1795.34C8039.13 1798.99 8038.24 1802.64 8037.31 1806.39C8027.75 1843.83 8027.75 1843.83 8015.35 1853.05C7991.23 1863.01 7963.86 1853.9 7939.41 1848.45C7932.73 1846.97 7926.02 1845.58 7919.33 1844.19C7915.06 1843.24 7910.8 1842.3 7906.4 1841.33C7900.61 1840.08 7900.61 1840.08 7894.68 1838.79C7882.18 1834.28 7875.82 1828.77 7867.26 1819.29C7862.56 1806.79 7863.55 1801.31 7868.08 1788.66C7874 1778.46 7874 1778.46 7884.13 1772.18C7893.26 1771.56 7893.26 1771.56 7903.35 1771.78C7906.73 1771.84 7910.1 1771.9 7913.54 1771.95C7916.12 1772.03 7918.67 1772.1 7921.32 1772.18C7920.06 1770.05 7918.77 1767.93 7917.48 1765.74C7913.61 1759.27 7909.74 1752.8 7905.87 1746.32C7901.33 1738.75 7896.8 1731.18 7892.27 1723.6C7881.55 1705.65 7870.8 1687.7 7860.11 1669.72C7856.7 1664.02 7853.33 1658.32 7849.92 1652.62C7845.65 1645.48 7841.42 1638.34 7837.15 1631.2C7826.3 1612.95 7815.11 1594.97 7803.23 1577.28C7799.63 1571.17 7799.63 1571.17 7799.63 1564.88C7790.6 1562.08 7785.27 1561.32 7775.97 1561.35C7773.66 1561.34 7771.37 1561.34 7768.99 1561.33C7761.71 1561.53 7761.71 1561.53 7752.32 1564.88C7751.19 1567.99 7750.07 1571.11 7748.94 1574.31C7737.26 1582.24 7725.78 1581.73 7711.75 1580.59C7702.19 1576.65 7696.67 1573.42 7690.41 1565.67C7686.44 1553.59 7685.22 1542.86 7690.68 1530.98C7702.92 1512.82 7723.56 1500.6 7745.2 1493.76C7782.19 1487.96 7812.5 1493.15 7844 1511.29Z" fill="white"/>
<path d="M7641.02 1632.46C7650.95 1644.58 7654.42 1656.84 7658.57 1671.86C7659.4 1674.74 7660.26 1677.63 7661.11 1680.6C7662.76 1686.31 7664.38 1692.04 7666 1697.77C7667.81 1704.28 7669.73 1710.75 7671.67 1717.22C7676.49 1733.82 7680.88 1749.15 7678.17 1766.52C7672.13 1776.56 7665.37 1784.9 7654.81 1790.25C7635.28 1792.53 7635.28 1792.53 7625.71 1786.81C7617.1 1779.68 7610.89 1772.52 7604.72 1763.14C7603.47 1765.43 7602.22 1767.72 7600.93 1770.08C7599.15 1773.33 7597.37 1776.58 7595.55 1779.93C7593.54 1783.59 7591.52 1787.26 7589.48 1791.03C7584.99 1799.19 7580.54 1807.36 7576.05 1815.52C7565.39 1834.99 7554.73 1854.45 7544.11 1873.93C7539.59 1882.18 7535.07 1890.42 7530.58 1898.67C7527.38 1904.49 7524.21 1910.31 7521.01 1916.13C7504.84 1945.69 7504.84 1945.69 7496.69 1960.02C7491.32 1969.65 7488.18 1975.75 7487.88 1986.78C7491.22 1997.81 7494.12 2004.87 7504.18 2010.81C7508.9 2013 7513.62 2015.18 7518.34 2017.35C7528.07 2022.49 7531.18 2027.07 7534.64 2037.6C7535.2 2052.26 7533.78 2064.04 7526.06 2076.57C7514.31 2083.91 7504.81 2086.69 7491.22 2085.04C7459.05 2073.63 7438.49 2057.09 7423.41 2026.37C7412.52 1999.09 7412.69 1974 7421.13 1946.12C7425.82 1934.87 7431.43 1924.22 7437.2 1913.5C7438.79 1910.44 7440.4 1907.38 7442.09 1904.23C7455.91 1878.12 7470.3 1852.3 7484.75 1826.54C7504.09 1792.11 7522.73 1757.32 7541.31 1722.48C7538.24 1723.11 7535.13 1723.75 7531.97 1724.41C7518.24 1726.28 7512.63 1723.41 7501.25 1715.7C7494.02 1707.67 7491.42 1702.22 7490.79 1691.36C7491.91 1670.76 7491.91 1670.76 7501.81 1661.47C7518.01 1649.86 7536.62 1645.84 7555.49 1640.3C7559.45 1639.07 7563.45 1637.84 7567.54 1636.57C7618.91 1621.24 7618.91 1621.24 7641.02 1632.46Z" fill="white"/>
<path d="M8060.65 1920.41C8075.93 1933.54 8081.73 1945.5 8083.92 1966.2C8084.68 2001.04 8080.5 2027.56 8058.62 2055.17C8029.42 2084.65 7995.61 2084.44 7957.78 2084.46C7952.41 2084.51 7947.01 2084.57 7941.64 2084.64C7927.55 2084.78 7913.46 2084.85 7899.37 2084.9C7884.95 2084.97 7870.53 2085.11 7856.11 2085.25C7827.9 2085.5 7799.69 2085.67 7771.44 2085.78C7772.97 2087.84 7774.53 2089.91 7776.09 2092.03C7784.44 2104.64 7783.18 2118.19 7780.89 2133.03C7774.56 2144.39 7770.12 2148.44 7758.25 2151.97C7745.49 2153.43 7737 2152.17 7726.16 2144.62C7717.74 2136.65 7710.05 2128.23 7702.29 2119.53C7698.71 2115.71 7695.1 2111.9 7691.45 2108.1C7654.26 2068.93 7654.26 2068.93 7653 2050.13C7653.6 2025.85 7667.92 2013.99 7683.43 1998.04C7687.01 1994.17 7690.56 1990.29 7694.11 1986.4C7730.57 1946.45 7730.57 1946.45 7749.07 1945.93C7760.6 1946.28 7764.81 1947.18 7774.99 1953.74C7783.11 1968.24 7783.91 1981.48 7780.89 1998.04C7777.84 2002.62 7774.73 2007.13 7771.44 2011.54C7799.36 2011.77 7827.27 2011.95 7855.15 2012.06C7868.11 2012.11 7881.07 2012.18 7894.03 2012.3C7906.53 2012.41 7919.06 2012.47 7931.56 2012.5C7936.33 2012.51 7941.11 2012.55 7945.85 2012.6C7952.54 2012.68 7959.24 2012.69 7965.94 2012.69C7969.75 2012.71 7973.56 2012.73 7977.47 2012.75C7990.47 2011.3 7998.79 2007.81 8010.36 2001.41C8015.99 1989.28 8013.47 1974.12 8013.11 1960.71C8012.78 1937.56 8012.78 1937.56 8019.81 1927.16C8034.23 1916.72 8043.97 1915.2 8060.65 1920.41Z" fill="white"/>
</svg>
